<?xml version="1.0" encoding="UTF-8"?>
<svg width="24" height="24" version="1.1" viewBox="0 0 6.35 6.35" xmlns="http://www.w3.org/2000/svg" xmlns:cc="http://creativecommons.org/ns#" xmlns:dc="http://purl.org/dc/elements/1.1/" xmlns:osb="http://www.openswatchbook.org/uri/2009/osb" xmlns:rdf="http://www.w3.org/1999/02/22-rdf-syntax-ns#">
 <metadata>
  <rdf:RDF>
   <cc:Work rdf:about="">
    <dc:format>image/svg+xml</dc:format>
    <dc:type rdf:resource="http://purl.org/dc/dcmitype/StillImage"/>
    <dc:title/>
   </cc:Work>
  </rdf:RDF>
 </metadata>
 <ellipse cx="3.175" cy="3.175" rx="3.1406" ry="3.1406" fill="#fff" stroke="#000" stroke-width=".042404"/>
 <g>
  <path d="M 11.704863,11.323273 12,11"/>
  <ellipse cx="3.175" cy="3.175" rx=".3348" ry=".3348" stroke="#000" stroke-width=".3348"/>
  <g stroke="#000" stroke-width=".0022321">
   <path transform="scale(.26458)" d="m0.8736 11.581c0.028567-0.64147 0.096203-1.2031 0.21554-1.7898 0.5937-2.9189 2.3331-5.4827 4.8202-7.1047 0.40319-0.26295 0.47274-0.30233 0.48396-0.27403 0.00487 0.012277 0.80591 1.4021 1.7801 3.0885l1.7712 3.0662-0.19287 0.13046c-0.98919 0.66909-1.6127 1.7346-1.7266 2.9504l-0.026652 0.2846h-7.1406z"/>
   <path transform="scale(.26458)" d="m11.467 23.125c-1.4563-0.09973-2.6205-0.36863-3.8281-0.88417-0.25757-0.10996-1.0169-0.48183-1.122-0.54952-0.020653-0.01329 0.45185-0.84996 1.749-3.097 0.97753-1.6933 1.7813-3.083 1.7861-3.088 0.0048-0.0051 0.09375 0.03287 0.19764 0.08435 1.0608 0.52562 2.3653 0.53416 3.4482 0.02257 0.18718-0.08843 0.23821-0.10446 0.25966-0.08154 0.01469 0.01569 0.81754 1.3996 1.7841 3.0754 0.96658 1.6758 1.7607 3.0525 1.7648 3.0595 0.01207 0.02071-0.75731 0.40787-1.1174 0.56229-1.0672 0.45763-2.0987 0.72321-3.3147 0.85339-0.30826 0.033-1.3466 0.06067-1.6071 0.04282z"/>
   <path transform="scale(.26458)" d="m15.988 11.76c-0.036741-0.44414-0.11186-0.79456-0.24907-1.1619-0.28432-0.7611-0.81162-1.4368-1.4703-1.8843-0.11049-0.075054-0.20377-0.13851-0.20728-0.14101-6e-3 -0.00427 3.536-6.1479 3.5559-6.1678 0.01258-0.012578 0.28542 0.15016 0.56412 0.33648 2.6977 1.8035 4.4732 4.6932 4.8708 7.9276 0.03602 0.29304 0.08684 0.98789 0.08877 1.2137l4.29e-4 0.05022h-7.139z"/>
  </g>
 </g>
 <path transform="scale(.26458)" d="m11.069 23.731c-1.8148-0.14928-3.7131-0.77189-5.2414-1.7191-4.093-2.5367-6.2165-7.2508-5.4187-12.029 0.1987-1.1902 0.67023-2.5371 1.267-3.6191 1.885-3.4178 5.31-5.6858 9.1688-6.0715 0.83911-0.083858 2.3122-0.032816 3.1079 0.10769 2.3781 0.41993 4.4636 1.469 6.1691 3.1033 1.9851 1.9022 3.21 4.3482 3.569 7.1269 0.09475 0.73341 0.07173 2.2876-0.04519 3.0516-0.195 1.2742-0.53602 2.3631-1.0995 3.5109-2.1151 4.3086-6.7168 6.9303-11.477 6.5387zm2.5264-0.69011c0.62158-0.09256 1.6606-0.35125 2.1872-0.54456 0.48195-0.17693 1.7414-0.77119 1.7414-0.82166 0-0.01831-0.74688-1.3256-1.6597-2.9052-0.91285-1.5795-1.7081-2.9572-1.7672-3.0616-0.05912-0.10435-0.13651-0.18973-0.17198-0.18973-0.03547 0-0.18216 0.04953-0.32598 0.11006-0.4802 0.20211-0.89822 0.29588-1.4323 0.32127-0.62454 0.02969-1.1848-0.07123-1.7486-0.31498-0.20292-0.08773-0.38151-0.14478-0.39686-0.12677-0.024976 0.02929-1.3869 2.3892-2.7769 4.8119-0.50201 0.87495-0.74728 1.329-0.74728 1.3833 0 0.04337 1.1433 0.5755 1.6119 0.75021 0.8397 0.31308 1.8335 0.54266 2.83 0.6538 0.50568 0.05639 2.1002 0.01673 2.6562-0.06607zm-1.0184-9.2181c0.77586-0.23964 1.2727-0.8794 1.3202-1.7 0.03559-0.61483-0.13144-1.0607-0.55661-1.4859-0.45222-0.45222-1.1265-0.64473-1.7619-0.50306-1.4351 0.31995-1.9895 2.0862-0.99017 3.1545 0.52151 0.55753 1.2659 0.75762 1.9885 0.53445zm-4.5619-1.8884c0-0.0068 0.020912-0.17911 0.046471-0.38295 0.052292-0.41704 0.22054-0.98943 0.38902-1.3235 0.28559-0.56624 0.79595-1.1555 1.2779-1.4755 0.24238-0.16093 0.24643-0.16707 0.1862-0.28201-0.26169-0.49932-3.4747-6.0191-3.5219-6.0504-0.075005-0.049789-0.79003 0.41317-1.4084 0.91186-0.52088 0.42011-1.3982 1.3125-1.7981 1.8291-1.1151 1.4404-1.8806 3.186-2.1763 4.9628-0.07437 0.44693-0.18244 1.4909-0.18244 1.7624 0 0.05038 0.60027 0.06048 3.5938 0.06048 1.9766 0 3.5938-0.0055 3.5938-0.01233zm15.119-0.52792c-0.18804-3.4972-2.0187-6.7273-4.9086-8.661-0.28961-0.19378-0.55077-0.35217-0.58036-0.35197-0.02959 2.009e-4 -0.3239 0.46728-0.65403 1.0379-1.3068 2.259-2.9155 5.0581-2.9342 5.1055-0.01087 0.027528 0.10789 0.14115 0.26393 0.25249 0.89956 0.64191 1.524 1.7295 1.6235 2.8277l0.02986 0.32955h7.1889z" fill="#ff0" stroke="#000" stroke-width=".0044643"/>
</svg>
