<?xml version="1.0" encoding="UTF-8" standalone="no"?>
<svg
   xmlns:dc="http://purl.org/dc/elements/1.1/"
   xmlns:cc="http://creativecommons.org/ns#"
   xmlns:rdf="http://www.w3.org/1999/02/22-rdf-syntax-ns#"
   xmlns:svg="http://www.w3.org/2000/svg"
   xmlns="http://www.w3.org/2000/svg"
   xmlns:sodipodi="http://sodipodi.sourceforge.net/DTD/sodipodi-0.dtd"
   xmlns:inkscape="http://www.inkscape.org/namespaces/inkscape"
   width="210mm"
   height="297mm"
   viewBox="0 0 210 297"
   version="1.1"
   id="svg3506"
   inkscape:version="1.0.1 (0767f8302a, 2020-10-17)"
   sodipodi:docname="barometer.svg"
   inkscape:export-filename="/home/drusill/Desktop/barometer.png"
   inkscape:export-xdpi="96"
   inkscape:export-ydpi="96">
  <defs
     id="defs3500" />
  <sodipodi:namedview
     id="base"
     pagecolor="#ffffff"
     bordercolor="#666666"
     borderopacity="1.0"
     inkscape:pageopacity="0.0"
     inkscape:pageshadow="2"
     inkscape:zoom="1.4142136"
     inkscape:cx="141.44019"
     inkscape:cy="-149.4717"
     inkscape:document-units="px"
     inkscape:current-layer="layer1"
     inkscape:document-rotation="0"
     showgrid="false"
     showborder="false"
     inkscape:window-width="1856"
     inkscape:window-height="1016"
     inkscape:window-x="64"
     inkscape:window-y="27"
     inkscape:window-maximized="1" />
  <metadata
     id="metadata3503">
    <rdf:RDF>
      <cc:Work
         rdf:about="">
        <dc:format>image/svg+xml</dc:format>
        <dc:type
           rdf:resource="http://purl.org/dc/dcmitype/StillImage" />
        <dc:title></dc:title>
      </cc:Work>
    </rdf:RDF>
  </metadata>
  <g
     inkscape:label="Layer 1"
     inkscape:groupmode="layer"
     id="layer1">
    <circle
       style="fill:#000000;fill-opacity:1;stroke-width:0.557383"
       id="path3508"
       sodipodi:type="arc"
       sodipodi:cx="61.797741"
       sodipodi:cy="-39.717884"
       sodipodi:rx="45.064453"
       sodipodi:ry="45.064453"
       sodipodi:start="5.6712654"
       sodipodi:end="5.4977871"
       sodipodi:arc-type="arc"
       d="m 98.685098,-65.604711 a 45.064453,45.064453 0 0 1 -9.425584,61.6171499 45.064453,45.064453 0 0 1 -61.967866,-6.7452499 45.064453,45.064453 0 0 1 4.052229,-62.202044 45.064453,45.064453 0 0 1 62.319243,1.351589"
       sodipodi:open="true" />
    <circle
       style="fill:#ffffff;fill-opacity:1;stroke-width:0.522266"
       id="circle4071"
       sodipodi:type="arc"
       sodipodi:cx="61.797741"
       sodipodi:cy="-39.717884"
       sodipodi:rx="42.225285"
       sodipodi:ry="42.225285"
       sodipodi:start="5.6712654"
       sodipodi:end="5.4977871"
       sodipodi:arc-type="arc"
       d="m 96.361106,-63.973779 a 42.225285,42.225285 0 0 1 -8.83175,57.7351219 42.225285,42.225285 0 0 1 -58.063742,-6.3202829 42.225285,42.225285 0 0 1 3.79693,-58.283166 42.225285,42.225285 0 0 1 58.392981,1.266436"
       sodipodi:open="true" />
    <circle
       style="fill:#000000;fill-opacity:1;stroke-width:0.484582"
       id="circle4073"
       sodipodi:type="arc"
       sodipodi:cx="61.797741"
       sodipodi:cy="-39.717884"
       sodipodi:rx="39.178596"
       sodipodi:ry="39.178596"
       sodipodi:start="5.6712654"
       sodipodi:end="5.4977871"
       sodipodi:arc-type="arc"
       d="m 93.86725,-62.223639 a 39.178596,39.178596 0 0 1 -8.194512,53.5693496 39.178596,39.178596 0 0 1 -53.874258,-5.8642546 39.178596,39.178596 0 0 1 3.522969,-54.077851 39.178596,39.178596 0 0 1 54.179742,1.175058"
       sodipodi:open="true" />
    <circle
       style="fill:#ffffff;fill-opacity:1;stroke-width:0.442767"
       id="circle4075"
       sodipodi:type="arc"
       sodipodi:cx="61.797741"
       sodipodi:cy="-39.717884"
       sodipodi:rx="35.797867"
       sodipodi:ry="35.797867"
       sodipodi:start="5.6712654"
       sodipodi:end="5.4977871"
       sodipodi:arc-type="arc"
       d="M 91.099965,-60.281613 A 35.797867,35.797867 0 0 1 83.61256,-11.334774 35.797867,35.797867 0 0 1 34.387122,-16.693 a 35.797867,35.797867 0 0 1 3.218972,-49.411462 35.797867,35.797867 0 0 1 49.50456,1.073662"
       sodipodi:open="true" />
    <path
       style="fill:#554400;fill-opacity:1;stroke-width:0.133509"
       d="M 59.568961,2.7867597 C 48.986602,2.0524894 39.648371,-2.0183052 32.355739,-9.0762403 26.200652,-15.033241 22.020204,-22.493163 20.256344,-30.667363 c -2.727707,-12.640935 0.32789,-25.563106 8.455034,-35.756473 1.371589,-1.720296 4.699841,-5.034217 6.492184,-6.46423 6.332122,-5.052051 13.626955,-8.094935 21.833464,-9.107366 2.410986,-0.29744 7.165694,-0.29638 9.607914,0.0021 8.911437,1.089284 16.860213,4.678076 23.600493,10.65538 1.74135,1.54424 6.39479,7.074072 7.62805,9.06466 3.503447,5.654863 5.563947,11.683717 6.292877,18.412442 0.22234,2.052367 0.18739,6.540095 -0.0681,8.744842 -0.59963,5.174516 -1.90121,9.594499 -4.207217,14.287054 -2.02639,4.123582 -4.70834,7.858222 -8.00637,11.1489485 -6.82803,6.8129633 -15.471032,11.0153632 -25.109071,12.2085748 -1.650647,0.2043543 -5.826401,0.3539538 -7.206641,0.2581851 z m 6.867379,-3.73446662 c 6.973203,-0.77951258 13.715164,-3.55893038 19.567413,-8.06679348 1.6697,-1.2861356 5.41743,-5.0614076 6.69347,-6.7426566 4.11284,-5.418866 6.65271,-11.339424 7.736347,-18.033792 0.39814,-2.459548 0.50277,-7.688561 0.20512,-10.250682 -0.690257,-5.941531 -2.646197,-11.546352 -5.755517,-16.492641 -1.03043,-1.639202 -4.97883,-6.392474 -6.49418,-7.818008 -6.53639,-6.148965 -15.301468,-9.85745 -24.447611,-10.34373 -8.430597,-0.448238 -16.647522,1.757502 -23.597722,6.334533 -13.421044,8.838384 -20.075949,25.047935 -16.743857,40.783499 2.598956,12.273377 11.155393,22.7386268 22.641028,27.6919054 6.372472,2.7481821 13.117647,3.72957894 20.195509,2.93836568 z"
       id="path4077" />
    <circle
       style="fill:#000000;fill-opacity:1;stroke-width:0.321583"
       id="circle4079"
       sodipodi:type="arc"
       sodipodi:cx="61.797741"
       sodipodi:cy="-39.805317"
       sodipodi:rx="25.533073"
       sodipodi:ry="26.475672"
       sodipodi:start="2.2208778"
       sodipodi:end="0.91929229"
       sodipodi:arc-type="arc"
       d="M 46.343816,-18.729769 A 25.533073,26.475672 0 0 1 37.598739,-48.25133 25.533073,26.475672 0 0 1 61.77958,-66.280982 25.533073,26.475672 0 0 1 85.985131,-48.287017 25.533073,26.475672 0 0 1 77.280564,-18.752586"
       sodipodi:open="true" />
    <circle
       style="fill:#ffffff;fill-opacity:1;stroke-width:0.315728"
       id="circle4081"
       sodipodi:type="arc"
       sodipodi:cx="61.797741"
       sodipodi:cy="-39.717884"
       sodipodi:rx="24.937386"
       sodipodi:ry="26.130262"
       sodipodi:start="5.6712654"
       sodipodi:end="5.4977871"
       sodipodi:arc-type="arc"
       d="m 82.210154,-54.728153 a 24.937386,26.130262 0 0 1 -5.21585,35.728211 24.937386,26.130262 0 0 1 -34.291253,-3.911179 24.937386,26.130262 0 0 1 2.242389,-36.067357 24.937386,26.130262 0 0 1 34.485695,0.783707"
       sodipodi:open="true" />
    <rect
       style="fill:#000000;fill-opacity:1;stroke-width:0.114307"
       id="rect4136"
       width="2.7148547"
       height="0.87627017"
       x="43.262138"
       y="16.649899"
       rx="0.34556437"
       ry="0.76706719"
       transform="rotate(-45.611385)" />
    <rect
       style="fill:#000000;fill-opacity:1;stroke-width:0.114307"
       id="rect4136-9"
       width="2.7148547"
       height="0.87627017"
       x="43.462009"
       y="-16.570763"
       rx="0.34556437"
       ry="0.76706719"
       transform="rotate(-19.284579)" />
    <rect
       style="fill:#000000;fill-opacity:1;stroke-width:0.114307"
       id="rect4136-27"
       width="2.7148547"
       height="0.87627017"
       x="33.289742"
       y="-41.948208"
       rx="0.34556437"
       ry="0.76706719"
       transform="rotate(0.69092698)" />
    <rect
       style="fill:#000000;fill-opacity:1;stroke-width:0.114307"
       id="rect4136-27-0"
       width="2.7148547"
       height="0.87627017"
       x="86.251198"
       y="-42.58691"
       rx="0.34556434"
       ry="0.76706719"
       transform="rotate(0.69092696)" />
    <rect
       style="fill:#000000;fill-opacity:1;stroke-width:0.114307"
       id="rect4136-27-9"
       width="2.7148547"
       height="0.87627017"
       x="-69.494614"
       y="-61.222984"
       rx="0.34556434"
       ry="0.76706719"
       transform="rotate(90.690927)" />
    <rect
       style="fill:#000000;fill-opacity:1;stroke-width:0.114307"
       id="rect4136-9-3"
       width="2.7148547"
       height="0.87627017"
       x="78.076706"
       y="-46.174416"
       rx="0.34556437"
       ry="0.76706719"
       transform="rotate(10.715421)" />
    <rect
       style="fill:#000000;fill-opacity:1;stroke-width:0.114307"
       id="rect4136-60"
       width="2.7148547"
       height="0.87627017"
       x="42.17244"
       y="-70.959694"
       rx="0.34556437"
       ry="0.76706719"
       transform="rotate(44.388614)" />
    <rect
       style="fill:#000000;fill-opacity:1;stroke-width:0.114307"
       id="rect4136-27-6"
       width="2.7148547"
       height="0.87627017"
       x="4.6821685"
       y="-66.11145"
       rx="0.34556434"
       ry="0.76706719"
       transform="rotate(30.690927)" />
    <rect
       style="fill:#000000;fill-opacity:1;stroke-width:0.114307"
       id="rect4136-27-6-2"
       width="2.7148547"
       height="0.87627017"
       x="-33.18359"
       y="-73.235619"
       rx="0.34556434"
       ry="0.76706719"
       transform="rotate(60.690927)" />
    <rect
       style="fill:#000000;fill-opacity:1;stroke-width:0.114307"
       id="rect4136-27-6-6"
       width="2.7148547"
       height="0.87627017"
       x="-99.687576"
       y="-18.915186"
       rx="0.34556434"
       ry="0.76706719"
       transform="rotate(137.20911)" />
    <rect
       style="fill:#000000;fill-opacity:1;stroke-width:0.114307"
       id="rect4136-27-6-2-1"
       width="2.7148547"
       height="0.87627017"
       x="-94.447472"
       y="-32.039188"
       rx="0.34556434"
       ry="0.76706719"
       transform="rotate(120.69093)" />
    <path
       sodipodi:type="star"
       style="fill:#806600;fill-opacity:1;stroke-width:0.264583"
       id="path4354"
       sodipodi:sides="3"
       sodipodi:cx="118.89273"
       sodipodi:cy="-10.233787"
       sodipodi:r1="14.532041"
       sodipodi:r2="2.1211491"
       sodipodi:arg1="1.6129203"
       sodipodi:arg2="2.6601179"
       inkscape:flatsided="true"
       inkscape:rounded="0"
       inkscape:randomized="4.126"
       d="M 93.554021,30.664151 166.37115,-26.630813 99.469578,42.776193 Z"
       inkscape:transform-center-x="-0.0038396748"
       inkscape:transform-center-y="-0.20716806"
       transform="matrix(0.16574167,-0.03594593,0.03211187,0.12397587,55.629596,-52.781801)" />
    <path
       style="fill:none;stroke:#000000;stroke-width:0.264583px;stroke-linecap:butt;stroke-linejoin:miter;stroke-opacity:1"
       d="M 47.44134,-26.355686 72.879106,-51.793453"
       id="path4358" />
    <circle
       style="fill:#806600;fill-opacity:1;stroke-width:0.200649"
       id="path4344"
       sodipodi:type="arc"
       sodipodi:cx="61.797741"
       sodipodi:cy="-40.657639"
       sodipodi:rx="2.3257391"
       sodipodi:ry="2.1343472"
       sodipodi:start="5.6712729"
       sodipodi:end="5.4977871"
       sodipodi:open="true"
       sodipodi:arc-type="arc"
       d="m 63.701477,-41.88368 a 2.3257391,2.1343472 0 0 1 -0.486467,2.918312 2.3257391,2.1343472 0 0 1 -3.198106,-0.319483 2.3257391,2.1343472 0 0 1 0.209141,-2.946016 2.3257391,2.1343472 0 0 1 3.216242,0.06402" />
    <circle
       style="fill:#000000;fill-opacity:1;stroke-width:0.132883"
       id="path4362"
       sodipodi:type="arc"
       sodipodi:cx="47.027321"
       sodipodi:cy="-25.941668"
       sodipodi:rx="0.58551139"
       sodipodi:ry="0.58551139"
       sodipodi:start="5.6712729"
       sodipodi:end="5.4977871"
       sodipodi:open="true"
       sodipodi:arc-type="arc"
       d="m 47.506592,-26.278005 a 0.58551139,0.58551139 0 0 1 -0.12247,0.800575 0.58551139,0.58551139 0 0 1 -0.805132,-0.08764 0.58551139,0.58551139 0 0 1 0.05265,-0.808175 0.58551139,0.58551139 0 0 1 0.809698,0.01756" />
  </g>
</svg>
