<?xml version="1.0" encoding="UTF-8" standalone="no"?>
<svg
   xmlns:dc="http://purl.org/dc/elements/1.1/"
   xmlns:cc="http://creativecommons.org/ns#"
   xmlns:rdf="http://www.w3.org/1999/02/22-rdf-syntax-ns#"
   xmlns:svg="http://www.w3.org/2000/svg"
   xmlns="http://www.w3.org/2000/svg"
   xmlns:sodipodi="http://sodipodi.sourceforge.net/DTD/sodipodi-0.dtd"
   xmlns:inkscape="http://www.inkscape.org/namespaces/inkscape"
   width="90.129mm"
   height="90.129mm"
   version="1.1"
   viewBox="0 0 90.129 90.129"
   id="svg54"
   sodipodi:docname="barometer.svg"
   inkscape:version="1.0.1 (0767f8302a, 2020-10-17)">
  <defs
     id="defs58" />
  <sodipodi:namedview
     pagecolor="#ffffff"
     bordercolor="#666666"
     borderopacity="1"
     objecttolerance="10"
     gridtolerance="10"
     guidetolerance="10"
     inkscape:pageopacity="0"
     inkscape:pageshadow="2"
     inkscape:window-width="1856"
     inkscape:window-height="1016"
     id="namedview56"
     showgrid="false"
     inkscape:zoom="2.5539782"
     inkscape:cx="170.32252"
     inkscape:cy="232.96988"
     inkscape:window-x="64"
     inkscape:window-y="27"
     inkscape:window-maximized="1"
     inkscape:current-layer="svg54"
     inkscape:document-rotation="0" />
  <metadata
     id="metadata2">
    <rdf:RDF>
      <cc:Work
         rdf:about="">
        <dc:format>image/svg+xml</dc:format>
        <dc:type
           rdf:resource="http://purl.org/dc/dcmitype/StillImage" />
        <dc:title />
      </cc:Work>
    </rdf:RDF>
  </metadata>
  <g
     transform="matrix(0.56518305,0,0,0.56518305,-10.831501,-5.3543597)"
     id="g52">
    <g
       id="g18">
      <path
         d="m 135.79,63.32 a 45.064,45.064 0 0 1 -9.4256,61.617 45.064,45.064 0 0 1 -61.968,-6.7452 45.064,45.064 0 0 1 4.0522,-62.202 45.064,45.064 0 0 1 62.319,1.3516"
         stroke-width="0.55738"
         id="path4" />
      <path
         d="m 133.46,64.951 a 42.225,42.225 0 0 1 -8.8318,57.735 42.225,42.225 0 0 1 -58.064,-6.3203 42.225,42.225 0 0 1 3.7969,-58.283 42.225,42.225 0 0 1 58.393,1.2664"
         fill="#ffffff"
         stroke-width="0.52227"
         id="path6" />
      <path
         d="m 130.97,66.701 a 39.179,39.179 0 0 1 -8.1945,53.569 39.179,39.179 0 0 1 -53.874,-5.8643 39.179,39.179 0 0 1 3.523,-54.078 39.179,39.179 0 0 1 54.18,1.1751"
         stroke-width="0.48458"
         id="path8" />
      <path
         d="m 128.2,68.643 a 35.798,35.798 0 0 1 -7.4874,48.947 35.798,35.798 0 0 1 -49.225,-5.3582 35.798,35.798 0 0 1 3.219,-49.411 35.798,35.798 0 0 1 49.505,1.0737"
         fill="#ffffff"
         stroke-width="0.44277"
         id="path10" />
      <path
         d="M 96.672,131.71 C 86.09,130.97573 76.751,126.9049 69.459,119.847 63.3039,113.89 59.123,106.43 57.36,98.256 54.6323,85.615 57.68789,72.693 65.815,62.5 c 1.3716,-1.7203 4.6998,-5.0342 6.4922,-6.4642 6.3321,-5.0521 13.627,-8.0949 21.833,-9.1074 2.411,-0.29744 7.1657,-0.29638 9.6079,0.0021 8.9114,1.0893 16.86,4.6781 23.6,10.655 1.7414,1.5442 6.3948,7.0741 7.628,9.0647 3.5034,5.6549 5.564,11.684 6.2929,18.412 0.22234,2.0524 0.18739,6.5401 -0.0681,8.7448 -0.59963,5.1745 -1.9012,9.5945 -4.2072,14.287 -2.0264,4.1236 -4.7083,7.8582 -8.0064,11.149 -6.828,6.813 -15.471,11.015 -25.109,12.209 -1.6506,0.20435 -5.8264,0.35395 -7.2066,0.25818 z m 6.8674,-3.7345 c 6.9732,-0.77951 13.715,-3.5589 19.567,-8.0668 1.6697,-1.2861 5.4174,-5.0614 6.6935,-6.7427 4.1128,-5.4189 6.6527,-11.339 7.7364,-18.034 0.39814,-2.4595 0.50277,-7.6886 0.20512,-10.251 -0.69026,-5.9415 -2.6462,-11.546 -5.7555,-16.493 -1.0304,-1.6392 -4.9788,-6.3925 -6.4942,-7.818 -6.5364,-6.149 -15.301,-9.8574 -24.448,-10.344 -8.4306,-0.44824 -16.648,1.7575 -23.598,6.3345 -13.421,8.8384 -20.076,25.048 -16.744,40.784 2.599,12.273 11.155,22.739 22.641,27.692 6.3725,2.7482 13.118,3.7296 20.196,2.9384 z"
         fill="#554400"
         stroke-width="0.13351"
         id="path12" />
      <path
         d="m 83.447,110.2 a 25.533,26.476 0 0 1 -8.7451,-29.522 25.533,26.476 0 0 1 24.181,-18.03 25.533,26.476 0 0 1 24.206,17.994 25.533,26.476 0 0 1 -8.7046,29.534"
         stroke-width="0.32158"
         id="path14" />
      <path
         d="m 119.31,74.197 a 24.937,26.13 0 0 1 -5.2158,35.728 24.937,26.13 0 0 1 -34.291,-3.9112 24.937,26.13 0 0 1 2.2424,-36.067 24.937,26.13 0 0 1 34.486,0.78371"
         fill="#ffffff"
         stroke-width="0.31573"
         id="path16" />
    </g>
    <g
       stroke-width="0.11431"
       id="g42">
      <path
         d="m 79.505,109.41 1.4156,-1.4462 c 0.13392,-0.13681 0.38137,-0.11025 0.55483,0.0595 0.17345,0.16979 0.20528,0.41662 0.07137,0.55343 l -1.4156,1.4462 c -0.13392,0.13681 -0.38137,0.11025 -0.55483,-0.0595 -0.17346,-0.16979 -0.20529,-0.41662 -0.07137,-0.55343 z"
         id="path20" />
      <path
         d="m 72.98,98.816 1.9102,-0.66836 c 0.1807,-0.0632 0.39071,0.0703 0.47087,0.29942 0.08016,0.22911 -7.75e-4,0.46446 -0.18148,0.52768 l -1.9102,0.66836 c -0.1807,0.0632 -0.39071,-0.0703 -0.47087,-0.29943 -0.08016,-0.2291 7.76e-4,-0.46445 0.18148,-0.52767 z"
         id="path22" />
      <path
         d="m 71.241,87.385 2.0236,0.0244 c 0.19143,0.0023 0.34318,0.19956 0.34026,0.44227 -0.0029,0.24271 -0.15939,0.43624 -0.35082,0.43394 l -2.0236,-0.0244 c -0.19143,-0.0023 -0.34318,-0.19956 -0.34026,-0.44227 0.0029,-0.24271 0.15939,-0.43624 0.35082,-0.43394 z"
         id="path24" />
      <path
         d="m 124.21,87.385 2.0236,0.0244 c 0.19143,0.0023 0.34318,0.19956 0.34025,0.44227 -0.003,0.24271 -0.15939,0.43624 -0.35082,0.43394 l -2.0236,-0.0244 c -0.19143,-0.0023 -0.34318,-0.19956 -0.34025,-0.44227 0.003,-0.24271 0.15939,-0.43624 0.35082,-0.43394 z"
         id="path26" />
      <path
         d="m 99.155,60.519 -0.0244,2.0236 c -0.0023,0.19143 -0.19956,0.34318 -0.44227,0.34026 -0.24271,-0.0029 -0.43624,-0.15939 -0.43394,-0.35082 l 0.0244,-2.0236 c 0.0023,-0.19143 0.19956,-0.34318 0.44227,-0.34026 0.24271,0.0029 0.43624,0.15939 0.43394,0.35082 z"
         id="path28" />
      <path
         d="m 122.74,98.137 1.9884,0.37627 c 0.1881,0.0356 0.3032,0.25626 0.25807,0.49475 -0.0451,0.23849 -0.23289,0.40184 -0.421,0.36624 l -1.9884,-0.37627 c -0.1881,-0.0356 -0.3032,-0.25625 -0.25807,-0.49475 0.0451,-0.23849 0.23289,-0.40184 0.421,-0.36624 z"
         id="path30" />
      <path
         d="m 117.12,107.96 1.4462,1.4156 c 0.13681,0.13392 0.11025,0.38137 -0.0595,0.55482 -0.16979,0.17346 -0.41662,0.20529 -0.55343,0.0714 l -1.4462,-1.4156 c -0.13681,-0.13392 -0.11026,-0.38137 0.0595,-0.55482 0.16979,-0.17346 0.41662,-0.20529 0.55342,-0.0714 z"
         id="path32" />
      <path
         d="m 75.17,74.64 1.7403,1.0329 c 0.16463,0.09771 0.19742,0.34442 0.07353,0.55314 -0.12389,0.20873 -0.35616,0.2981 -0.52079,0.20039 l -1.7403,-1.0329 c -0.16463,-0.09771 -0.19743,-0.34442 -0.07354,-0.55314 0.12389,-0.20873 0.35616,-0.2981 0.52079,-0.20039 z"
         id="path34" />
      <path
         d="m 84.889,64.44 0.99066,1.7647 c 0.09372,0.16694 -0.0012,0.39699 -0.21289,0.51581 -0.21166,0.11882 -0.4575,0.08008 -0.55121,-0.08685 l -0.99066,-1.7647 c -0.09371,-0.16694 0.0012,-0.39699 0.21289,-0.5158 0.21166,-0.11882 0.4575,-0.08008 0.55121,0.08685 z"
         id="path36" />
      <path
         d="m 122.85,75.32 -1.4851,1.3748 c -0.14049,0.13005 -0.38633,0.09135 -0.55122,-0.08677 -0.16489,-0.17812 -0.18454,-0.42622 -0.044,-0.55627 l 1.4851,-1.3748 c 0.14049,-0.13005 0.38634,-0.09135 0.55123,0.08677 0.16489,0.17812 0.18454,0.42622 0.044,0.55627 z"
         id="path38" />
      <path
         d="m 112.68,64.357 -1.0329,1.7403 c -0.0977,0.16463 -0.34442,0.19742 -0.55315,0.07353 -0.20872,-0.12389 -0.2981,-0.35616 -0.20038,-0.52079 l 1.0329,-1.7403 c 0.0977,-0.16463 0.34442,-0.19742 0.55315,-0.07353 0.20872,0.12389 0.2981,0.35616 0.20038,0.52079 z"
         id="path40" />
    </g>
    <path
       d="m 109.22,76.582 10.229,-9.7207 -8.8596,11.01 z"
       fill="#806600"
       stroke-width="0.038978"
       id="path44" />
    <path
       d="M 84.544,102.57 109.982,77.132"
       fill="none"
       stroke="#000000"
       stroke-width="0.26458px"
       id="path46" />
    <path
       d="m 100.8,87.041 a 2.3257,2.1343 0 0 1 -0.48647,2.9183 2.3257,2.1343 0 0 1 -3.1981,-0.31948 2.3257,2.1343 0 0 1 0.20914,-2.946 2.3257,2.1343 0 0 1 3.2162,0.06402"
       fill="#806600"
       stroke-width="0.20065"
       id="path48" />
    <path
       d="m 84.609,102.65 a 0.58551,0.58551 0 0 1 -0.12247,0.80057 0.58551,0.58551 0 0 1 -0.80513,-0.0876 0.58551,0.58551 0 0 1 0.05265,-0.80817 0.58551,0.58551 0 0 1 0.8097,0.0176"
       stroke-width="0.13288"
       id="path50" />
  </g>
</svg>
