<?xml version="1.0" encoding="UTF-8" standalone="no"?>
<svg
   xmlns:dc="http://purl.org/dc/elements/1.1/"
   xmlns:cc="http://creativecommons.org/ns#"
   xmlns:rdf="http://www.w3.org/1999/02/22-rdf-syntax-ns#"
   xmlns:svg="http://www.w3.org/2000/svg"
   xmlns="http://www.w3.org/2000/svg"
   xmlns:xlink="http://www.w3.org/1999/xlink"
   xmlns:sodipodi="http://sodipodi.sourceforge.net/DTD/sodipodi-0.dtd"
   xmlns:inkscape="http://www.inkscape.org/namespaces/inkscape"
   width="80"
   height="160"
   version="1.1"
   viewBox="0 0 21.167 42.333"
   id="svg44"
   sodipodi:docname="cam.svg"
   inkscape:version="1.0.1 (0767f8302a, 2020-10-17)">
  <sodipodi:namedview
     pagecolor="#ffffff"
     bordercolor="#666666"
     borderopacity="1"
     objecttolerance="10"
     gridtolerance="10"
     guidetolerance="10"
     inkscape:pageopacity="0"
     inkscape:pageshadow="2"
     inkscape:window-width="1856"
     inkscape:window-height="1016"
     id="namedview46"
     showgrid="false"
     inkscape:zoom="5.4375"
     inkscape:cx="1.3793103"
     inkscape:cy="80"
     inkscape:window-x="64"
     inkscape:window-y="27"
     inkscape:window-maximized="1"
     inkscape:current-layer="svg44" />
  <defs
     id="defs18">
    <linearGradient
       id="linearGradient3851">
      <stop
         offset="0"
         id="stop2" />
      <stop
         stop-opacity="0"
         offset="1"
         id="stop4" />
    </linearGradient>
    <linearGradient
       id="linearGradient3650-3">
      <stop
         stop-color="#1a1a1a"
         offset="0"
         id="stop7" />
      <stop
         stop-color="#1a1a1a"
         stop-opacity=".57647"
         offset=".97401"
         id="stop9" />
      <stop
         stop-color="#1a1a1a"
         stop-opacity="0"
         offset="1"
         id="stop11" />
    </linearGradient>
    <linearGradient
       id="linearGradient3791"
       x1=".012371"
       x2="14.485"
       y1="23.151"
       y2="23.151"
       gradientUnits="userSpaceOnUse"
       xlink:href="#linearGradient3650-3" />
    <linearGradient
       id="linearGradient3797"
       x1=".012371"
       x2="14.576"
       y1="23.151"
       y2="23.151"
       gradientTransform="matrix(1.0857 0 0 1.161 -.01046 -3.727)"
       gradientUnits="userSpaceOnUse"
       xlink:href="#linearGradient3650-3" />
    <radialGradient
       id="radialGradient3861"
       cx="7.2485"
       cy="23.151"
       r="7.2388"
       gradientTransform="matrix(3.2581 0 0 .94212 -16.368 1.3399)"
       gradientUnits="userSpaceOnUse"
       xlink:href="#linearGradient3851" />
    <radialGradient
       id="radialGradient3863"
       cx="7.8593"
       cy="23.151"
       r="7.8593"
       gradientTransform="matrix(1.0123 0 0 .35179 -.096563 15.007)"
       gradientUnits="userSpaceOnUse"
       xlink:href="#linearGradient3851" />
  </defs>
  <metadata
     id="metadata20">
    <rdf:RDF>
      <cc:Work
         rdf:about="">
        <dc:format>image/svg+xml</dc:format>
        <dc:type
           rdf:resource="http://purl.org/dc/dcmitype/StillImage" />
        <dc:title />
      </cc:Work>
    </rdf:RDF>
  </metadata>
  <path
     d="M 0.02644724,0.01321724 H 21.167012 V 3.0113432 39.322657 42.320783 H 0.02644724 c 0,0 -1e-6,-1.337212 -1e-6,-2.998126 V 3.0113432 c 0,-1.6610144 1e-6,-2.99812596 1e-6,-2.99812596 z"
     fill="#000023"
     fill-opacity="0.78812"
     stroke="#f7e58c"
     stroke-opacity="0.76824"
     stroke-width="0.0264345"
     id="path22" />
  <rect
     x=".0029705"
     y="20.423"
     width="15.713"
     height="5.4566"
     rx="5.2218e-7"
     ry="1.5652"
     fill="url(#linearGradient3797)"
     stroke="url(#radialGradient3863)"
     stroke-dashoffset=".052917"
     stroke-opacity=".89412"
     stroke-width=".005941"
     id="rect24" />
  <rect
     x=".012371"
     y="20.801"
     width="14.472"
     height="4.7"
     rx="4.8095e-7"
     ry="1.3482"
     fill="url(#linearGradient3791)"
     stroke="url(#radialGradient3861)"
     stroke-dashoffset=".052917"
     stroke-opacity=".89412"
     stroke-width=".0052917"
     id="rect26" />
  <path
     d="m7.5756 21.18h6.0419c0.25748 0 0.46477 0.84975 0.46477 1.9053 0 1.0555-0.20729 1.9053-0.46477 1.9053h-6.0419c-0.25748 0-0.46477-0.84975-0.46477-1.9053 0-1.0555 0.20729-1.9053 0.46477-1.9053z"
     fill="#f55"
     fill-opacity=".82871"
     stroke="#000"
     stroke-width=".025926"
     id="path28" />
  <path
     d="m8.0395 21.713h5.1141c0.21795 0 0.3934 0.61202 0.3934 1.3722 0 0.76023-0.17546 1.3722-0.3934 1.3722h-5.1141c-0.21794 0-0.3934-0.61202-0.3934-1.3722 0-0.76023 0.17546-1.3722 0.3934-1.3722z"
     fill="#f55"
     fill-opacity=".82871"
     id="path30" />
  <g
     stroke="#000"
     id="g38">
    <path
       d="m11.633 23.143a1.0366 1.0366 0 0 1-1.0366 1.0366 1.0366 1.0366 0 0 1-1.0366-1.0366 1.0366 1.0366 0 0 1 1.0366-1.0366 1.0366 1.0366 0 0 1 1.0366 1.0366z"
       stroke-width=".026458"
       id="path32" />
    <path
       d="m11.184 23.143a0.58699 0.58699 0 0 1-0.58699 0.58699 0.58699 0.58699 0 0 1-0.58699-0.58699 0.58699 0.58699 0 0 1 0.58699-0.58699 0.58699 0.58699 0 0 1 0.58699 0.58699z"
       fill="#fff"
       stroke-width=".014983"
       id="path34" />
    <path
       d="m10.681 23.143a0.084385 0.084385 0 0 1-0.08439 0.08439 0.084385 0.084385 0 0 1-0.08438-0.08439 0.084385 0.084385 0 0 1 0.08438-0.08439 0.084385 0.084385 0 0 1 0.08439 0.08439z"
       stroke-width=".0021539"
       id="path36" />
  </g>
  <path
     d="m0.017757 23.285h6.8394"
     fill="none"
     stroke="#858585"
     stroke-width=".3601"
     id="path40" />
  <path
     d="m6.8456 22.55h0.09369c0.11018 0 0.19888 0.14183 0.19888 0.318v0.72152c0 0.17617-0.0887 0.318-0.19888 0.318h-0.09369c-0.11018 0-0.19888-0.14183-0.19888-0.318v-0.72152c0-0.17617 0.0887-0.318 0.19888-0.318z"
     fill="#4f1111"
     stroke-width="0"
     id="path42" />
</svg>
