<?xml version="1.0" encoding="UTF-8" standalone="no"?>
<svg
   xmlns:dc="http://purl.org/dc/elements/1.1/"
   xmlns:cc="http://creativecommons.org/ns#"
   xmlns:rdf="http://www.w3.org/1999/02/22-rdf-syntax-ns#"
   xmlns:svg="http://www.w3.org/2000/svg"
   xmlns="http://www.w3.org/2000/svg"
   xmlns:xlink="http://www.w3.org/1999/xlink"
   xmlns:sodipodi="http://sodipodi.sourceforge.net/DTD/sodipodi-0.dtd"
   xmlns:inkscape="http://www.inkscape.org/namespaces/inkscape"
   width="58.869366mm"
   height="43.419849mm"
   viewBox="0 0 58.869366 43.419849"
   version="1.1"
   id="svg10371"
   sodipodi:docname="lector.svg"
   inkscape:version="1.0.1 (3bc2e813f5, 2020-09-07)">
  <defs
     id="defs10365">
    <filter
       inkscape:collect="always"
       style="color-interpolation-filters:sRGB"
       id="filter3829"
       x="-7.8438853e-07"
       width="1.0000015"
       y="-2.5523991e-06"
       height="1.0000051">
      <feGaussianBlur
         inkscape:collect="always"
         stdDeviation="8.1953958e-06"
         id="feGaussianBlur3831" />
    </filter>
    <filter
       inkscape:collect="always"
       style="color-interpolation-filters:sRGB"
       id="filter6448"
       x="-0.38868624"
       width="1.7773725"
       y="-0.37630171"
       height="1.7526034">
      <feGaussianBlur
         inkscape:collect="always"
         stdDeviation="0.36814955"
         id="feGaussianBlur6450" />
    </filter>
    <filter
       inkscape:collect="always"
       style="color-interpolation-filters:sRGB"
       id="filter4956"
       x="-0.31476995"
       width="1.6295398"
       y="-0.30474055"
       height="1.6094811">
      <feGaussianBlur
         inkscape:collect="always"
         stdDeviation="0.2981387"
         id="feGaussianBlur4958" />
    </filter>
    <filter
       inkscape:collect="always"
       style="color-interpolation-filters:sRGB"
       id="filter5062"
       x="-0.26854324"
       width="1.5370865"
       y="-0.25998673"
       height="1.5199735">
      <feGaussianBlur
         inkscape:collect="always"
         stdDeviation="0.25435442"
         id="feGaussianBlur5064" />
    </filter>
    <radialGradient
       inkscape:collect="always"
       xlink:href="#linearGradient5138"
       id="radialGradient5140"
       cx="59.285179"
       cy="17.604637"
       fx="59.285179"
       fy="17.604637"
       r="8.3258848"
       gradientTransform="matrix(0.51654831,0.33639532,-0.10747109,0.16502667,-1.3154804,146.15482)"
       gradientUnits="userSpaceOnUse" />
    <linearGradient
       inkscape:collect="always"
       id="linearGradient5138">
      <stop
         style="stop-color:#ffffff;stop-opacity:1"
         offset="0"
         id="stop5134" />
      <stop
         style="stop-color:#5e6365;stop-opacity:1"
         offset="1"
         id="stop5136" />
    </linearGradient>
    <radialGradient
       inkscape:collect="always"
       xlink:href="#linearGradient6322"
       id="radialGradient5208"
       gradientUnits="userSpaceOnUse"
       gradientTransform="matrix(-0.05271039,0.94723568,0.09383025,0.01112228,49.656007,118.18501)"
       cx="54.842854"
       cy="26.767204"
       fx="54.842854"
       fy="26.767204"
       r="8.3258848" />
    <linearGradient
       inkscape:collect="always"
       id="linearGradient6322">
      <stop
         style="stop-color:#a3a09c;stop-opacity:1"
         offset="0"
         id="stop6318" />
      <stop
         style="stop-color:#5e6365;stop-opacity:0.998209"
         offset="1"
         id="stop6320" />
    </linearGradient>
  </defs>
  <sodipodi:namedview
     id="base"
     pagecolor="#ffffff"
     bordercolor="#666666"
     borderopacity="1.0"
     inkscape:pageopacity="0.0"
     inkscape:pageshadow="2"
     inkscape:zoom="2.8"
     inkscape:cx="63.510011"
     inkscape:cy="119.01061"
     inkscape:document-units="mm"
     inkscape:current-layer="layer1"
     inkscape:document-rotation="0"
     showgrid="false"
     inkscape:window-width="1510"
     inkscape:window-height="1005"
     inkscape:window-x="0"
     inkscape:window-y="134"
     inkscape:window-maximized="0"
     fit-margin-top="0"
     fit-margin-left="0"
     fit-margin-right="0"
     fit-margin-bottom="0" />
  <metadata
     id="metadata10368">
    <rdf:RDF>
      <cc:Work
         rdf:about="">
        <dc:format>image/svg+xml</dc:format>
        <dc:type
           rdf:resource="http://purl.org/dc/dcmitype/StillImage" />
        <dc:title></dc:title>
      </cc:Work>
    </rdf:RDF>
  </metadata>
  <g
     inkscape:label="Capa 1"
     inkscape:groupmode="layer"
     id="layer1"
     transform="translate(-68.772128,-157.96594)">
    <g
       id="g9232"
       clip-path="none"
       transform="matrix(2.0562234,0,0,2.0561875,21.949639,-180.30012)"
       style="opacity:1">
      <g
         inkscape:label="Clip"
         id="g9230">
        <path
           style="display:inline;fill:#c9cac5;fill-opacity:1;stroke:none;stroke-width:0.264586px;stroke-linecap:butt;stroke-linejoin:miter;stroke-opacity:1"
           d="m 30.830139,176.98311 c 0.169077,-1.93661 0.133986,-2.49113 0.356656,-5.05959 0.03247,-0.3746 0.01258,-0.46165 0.01988,-1.54173 0,0 -0.511018,-3.70063 4.496906,-5.50163 0,0 2.288565,-0.4388 6.127101,0.1307 3.620292,1.19887 3.520436,5.65224 3.520436,5.65224 l 0.03494,1.31282 c -0.0097,2.49987 0.03719,4.17444 0.03719,4.17444 0.01902,0.59622 0.03411,0.90802 0.03411,0.90802 z"
           id="path4009"
           sodipodi:nodetypes="cscccccccc" />
        <path
           style="display:inline;opacity:0.564997;fill:#e6ebfe;fill-opacity:0.892199;stroke:none;stroke-width:0.260176px;stroke-linecap:butt;stroke-linejoin:miter;stroke-opacity:1"
           d="m 48.810409,177.22539 c 2.277055,0.11341 2.060713,1.62033 2.060713,1.62033 0,0 0.275582,1.17793 0.4454,2.68621 l 0.07178,0.40148 c 0.06908,2.32928 -0.167135,3.2974 -0.167135,3.2974 -0.267504,0.23139 -1.038855,0.21249 -1.038855,0.21249 0,0 -26.113982,-0.18228 -26.555729,-0.34167 -0.441751,-0.15939 -0.855473,-0.54119 -0.855473,-0.54119 l 0.121614,-2.78655 0.561879,-1.46127 c 2.347894,-4.27798 0.04748,-3.0048 6.815949,-3.22708 l 15.327359,0.13 c 0.29158,-0.009 2.470123,-0.1013 3.212498,0.01 z"
           id="path437"
           sodipodi:nodetypes="ccccccscccccc" />
        <path
           style="display:inline;opacity:1;fill:none;stroke:#000000;stroke-width:0.264583px;stroke-linecap:butt;stroke-linejoin:miter;stroke-opacity:1"
           d="M 23.877864,179.77625 Z"
           id="path457" />
        <path
           style="display:inline;opacity:1;mix-blend-mode:normal;fill:#000000;fill-opacity:1;stroke:none;stroke-width:0.264583px;stroke-linecap:butt;stroke-linejoin:miter;stroke-opacity:1"
           d="m 32.260486,167.23452 c 0,0 -0.430345,0.68025 -0.369238,2.48019 0.0079,1.15478 1.223926,1.52539 1.223926,1.52539 0,0 10.557803,0.50918 11.064632,0.16724 0,0 1.128904,-1.40207 0.911796,-2.70156 0,0 -0.212918,-1.06054 -0.85496,-1.99359 -0.340864,-0.49536 -0.799369,-0.97981 -1.382247,-1.22635 -2.628658,-1.61613 -7.343758,-0.56991 -7.312701,-0.55358 0,0 -0.874619,0.31923 -1.776901,0.8907 -0.665068,0.42123 -1.397679,1.10921 -1.504307,1.41156 z"
           id="path471"
           sodipodi:nodetypes="cccccsccsc" />
        <path
           style="display:inline;opacity:1;fill:none;stroke:#000000;stroke-width:0.264583px;stroke-linecap:butt;stroke-linejoin:miter;stroke-opacity:1"
           d="m 32.392906,171.98 c 0,0 5.302776,0.89045 12.21848,0.31551"
           id="path3930"
           sodipodi:nodetypes="cc" />
        <path
           style="display:inline;opacity:1;fill:#c9cac5;fill-opacity:1;stroke:none;stroke-width:0.264583px;stroke-linecap:butt;stroke-linejoin:miter;stroke-opacity:1"
           d="m 30.830139,176.98311 0.05235,-3.89555 c 0,0 9.282933,0.17157 14.88961,0.2101 -0.01326,1.43618 -0.01296,2.49749 -0.05952,3.76072"
           id="path3986"
           sodipodi:nodetypes="cccc" />
        <path
           style="display:inline;opacity:0.328067;fill:#8b858b;fill-opacity:1;stroke:#000000;stroke-width:0.264583px;stroke-linecap:butt;stroke-linejoin:miter;stroke-opacity:1"
           d="m 45.457357,177.05838 c 0,0 -0.221393,-2.49246 -1.7569,-2.44698 l -11.157825,-0.13952 c -1.661811,0.0544 -1.61247,2.51715 -1.61247,2.51715"
           id="path3934"
           sodipodi:nodetypes="cccc" />
        <path
           style="display:inline;opacity:1;fill:none;stroke:#aab8ff;stroke-width:0.264583px;stroke-linecap:butt;stroke-linejoin:miter;stroke-opacity:0.338275"
           d="m 48.869456,177.27899 -22.899782,-0.0934 c -0.491662,0.0279 -0.705299,0.1112 -0.93921,0.2025 l -1.900014,3.94459 c 0.153964,0.50942 -0.559205,0.36362 0.652355,0.43642 l 26.863591,0.31092 c 0,0 0.506714,0.0541 0.670112,-0.54809 l -0.488798,-2.70801 c -0.208953,-0.37062 0.287139,-1.1316 -1.958254,-1.54493 z"
           id="path465"
           sodipodi:nodetypes="ccccccccc" />
        <path
           style="display:inline;opacity:0.339587;mix-blend-mode:normal;fill:none;fill-opacity:1;stroke:#a9b9ff;stroke-width:0.118665;stroke-linecap:butt;stroke-linejoin:miter;stroke-miterlimit:4;stroke-dasharray:none;stroke-opacity:0.384314"
           d="m 22.77111,184.56044 c 1.051506,-2.01431 2.610688,-3.98724 2.358275,-4.13267 7.884759,0.35229 15.40729,0.47281 24.448749,0.70236 0.301375,2.52017 0.67905,4.32984 0.553849,4.29887"
           id="path754"
           sodipodi:nodetypes="cccc" />
        <path
           style="display:inline;opacity:0.339587;fill:#dde1e1;fill-opacity:0.639216;stroke:#a9b9ff;stroke-width:0.118665;stroke-linecap:butt;stroke-linejoin:miter;stroke-miterlimit:4;stroke-dasharray:none;stroke-opacity:0.384314"
           d="m 25.339533,177.36184 c 0.03805,1.00583 -0.210148,3.06593 -0.210148,3.06593"
           id="path3833"
           sodipodi:nodetypes="cc" />
        <path
           style="display:inline;opacity:0.339587;fill:none;stroke:#a9b9ff;stroke-width:0.118665;stroke-linecap:butt;stroke-linejoin:miter;stroke-miterlimit:4;stroke-dasharray:none;stroke-opacity:0.384314"
           d="m 49.572692,181.07204 0.401838,-3.25859"
           id="path3835"
           sodipodi:nodetypes="cc" />
        <path
           style="display:inline;fill:none;fill-opacity:1;stroke-width:0.027514"
           d="m 50.131961,185.42897 c -0.415343,-1.15571 -0.5309,-2.65379 -0.299461,-3.88222 0.02257,-0.11973 0.03623,-0.22243 0.03037,-0.22822 -0.03683,-0.0365 -1.61591,-0.20768 -2.605464,-0.28253 -3.719505,-0.28135 -9.008564,-0.42074 -17.130142,-0.45145 l -3.576958,-0.0135 -0.219429,0.13153 c -1.577778,0.94576 -2.532915,2.33115 -2.525954,3.66378 l 0.0013,0.24402 -0.12804,6.6e-4 -0.128041,6.6e-4 0.01658,-0.32338 c 0.02803,-0.54658 0.136066,-0.95044 0.396159,-1.48097 0.210559,-0.4295 0.459078,-0.77875 0.83209,-1.16937 0.450216,-0.47148 0.91971,-0.84645 1.423661,-1.13704 l 0.245736,-0.14169 2.105958,-0.0109 c 3.477585,-0.018 8.330339,0.0361 11.791811,0.13158 4.384865,0.1209 7.561943,0.31549 9.36024,0.57329 0.29849,0.0428 0.30493,0.0452 0.292836,0.11033 -0.0096,0.0513 0.0016,0.0702 0.04892,0.0823 0.05214,0.0133 0.05873,0.0285 0.04416,0.1013 -0.183205,0.91522 -0.209814,1.75144 -0.08372,2.63104 0.07579,0.52872 0.228515,1.15765 0.35161,1.44798 0.02273,0.0536 0.04136,0.10187 0.04139,0.1072 7.7e-5,0.0148 -0.158253,0.0945 -0.18795,0.0946 -0.01434,7e-5 -0.05829,-0.0895 -0.09764,-0.19897 z"
           id="path766" />
        <path
           style="display:inline;fill:none;fill-opacity:1;stroke-width:0.027514"
           d="m 50.131961,185.42897 c -0.415343,-1.15571 -0.5309,-2.65379 -0.299461,-3.88222 0.02257,-0.11973 0.03623,-0.22243 0.03037,-0.22822 -0.03683,-0.0365 -1.61591,-0.20768 -2.605464,-0.28253 -3.719505,-0.28135 -9.008564,-0.42074 -17.130142,-0.45145 l -3.576958,-0.0135 -0.219429,0.13153 c -1.577778,0.94576 -2.532915,2.33115 -2.525954,3.66378 l 0.0013,0.24402 -0.12804,6.6e-4 -0.128041,6.6e-4 0.01658,-0.32338 c 0.02803,-0.54658 0.136066,-0.95044 0.396159,-1.48097 0.210559,-0.4295 0.459078,-0.77875 0.83209,-1.16937 0.450216,-0.47148 0.91971,-0.84645 1.423661,-1.13704 l 0.245736,-0.14169 2.105958,-0.0109 c 3.477585,-0.018 8.330339,0.0361 11.791811,0.13158 4.384865,0.1209 7.561943,0.31549 9.36024,0.57329 0.29849,0.0428 0.30493,0.0452 0.292836,0.11033 -0.0096,0.0513 0.0016,0.0702 0.04892,0.0823 0.05214,0.0133 0.05873,0.0285 0.04416,0.1013 -0.183205,0.91522 -0.209814,1.75144 -0.08372,2.63104 0.07579,0.52872 0.228515,1.15765 0.35161,1.44798 0.02273,0.0536 0.04136,0.10187 0.04139,0.1072 7.7e-5,0.0148 -0.158253,0.0945 -0.18795,0.0946 -0.01434,7e-5 -0.05829,-0.0895 -0.09764,-0.19897 z"
           id="path768" />
        <path
           style="display:inline;opacity:1;fill:#dfe0de;fill-opacity:1;stroke:none;stroke-width:1px;stroke-linecap:butt;stroke-linejoin:miter;stroke-opacity:1;filter:url(#filter3829)"
           d="m 58.253072,0.05030639 c 7.939776,-0.1508121 11.157842,0.8582748 11.157842,0.8582748 0,0 1.103258,4.89886961 -0.372204,6.97086521 C 59.16086,7.8464734 56.642104,8.7964558 48.535835,7.4361361 47.64523,5.170637 47.857409,2.0092071 50.270888,0.90174439 c 5.83998,-0.9046386 1.124195,-0.3375143 7.982184,-0.851438 z"
           id="path3789"
           sodipodi:nodetypes="cccccc"
           transform="matrix(0.26458333,0,0,0.26458333,22.77111,164.51155)" />
        <path
           style="display:inline;opacity:1;fill:#f2f2f2;fill-opacity:1;stroke:none;stroke-width:0.264583px;stroke-linecap:butt;stroke-linejoin:miter;stroke-opacity:1"
           d="m 31.159675,171.91612 -0.277187,1.17144 c 2.913555,0.0838 5.764866,0.21223 8.066979,0.24605 3.192676,0.0469 6.163262,-0.0746 6.822631,-0.0359 l -0.534346,-1.01872 c -5.302347,1.14576 -14.078077,-0.36282 -14.078077,-0.36282 z"
           id="path3999"
           sodipodi:nodetypes="ccsccc" />
        <ellipse
           style="opacity:1;fill:#feffff;fill-opacity:1;fill-rule:evenodd;stroke:none;stroke-width:0.423226;stroke-opacity:0.0627451;filter:url(#filter6448)"
           id="path4621"
           cx="71.334518"
           cy="18.915916"
           rx="1.1365966"
           ry="1.1740034"
           transform="matrix(0.32991086,0,0,0.24285309,19.005641,164.33524)" />
        <ellipse
           style="opacity:1;fill:#feffff;fill-opacity:1;fill-rule:evenodd;stroke:none;stroke-width:0.423226;stroke-opacity:0.0627451;filter:url(#filter4956)"
           id="path4621-3"
           cx="71.334518"
           cy="18.915916"
           rx="1.1365966"
           ry="1.1740034"
           transform="matrix(0.22828826,0,0,0.19061738,18.341684,165.62394)" />
        <ellipse
           style="opacity:1;fill:#feffff;fill-opacity:1;fill-rule:evenodd;stroke:none;stroke-width:0.423226;stroke-opacity:0.0627451;filter:url(#filter5062)"
           id="path4621-2"
           cx="71.334518"
           cy="18.915916"
           rx="1.1365966"
           ry="1.1740034"
           transform="matrix(0.18508326,0,0,0.16811139,22.358458,164.87543)" />
        <path
           style="display:inline;opacity:0.997;fill:url(#radialGradient5140);fill-opacity:1;stroke:none;stroke-width:0.264583px;stroke-linecap:butt;stroke-linejoin:miter;stroke-opacity:1"
           d="m 26.883229,173.16767 2.062259,-0.0313 0.08103,-1.08107 c 0.151333,-0.43026 -0.376623,-0.10186 2.094718,-0.31153 0.107609,0.26359 0.03885,-1.21843 0.03885,-1.21843 l -1.837692,-0.23122 c -0.200477,-0.12626 -0.252963,-0.59569 -0.66104,-1.56293 0,0 -0.436415,-0.10926 -1.4515,0.0524 0,0 -0.693996,0.6041 -0.326629,4.38405 z"
           id="path4225"
           sodipodi:nodetypes="ccccccccc" />
        <path
           style="display:inline;opacity:1;fill:url(#radialGradient5208);fill-opacity:1;stroke:none;stroke-width:0.253571px;stroke-linecap:butt;stroke-linejoin:miter;stroke-opacity:0"
           d="m 49.395901,173.4792 -1.163633,-0.17035 -0.926489,-1.11579 c -0.138998,-0.43026 0.345922,-0.10186 -1.923959,-0.31153 -0.09884,0.26359 -0.03568,-1.21843 -0.03568,-1.21843 l 1.687886,-0.23122 c 0.184133,-0.12626 0.809326,-0.71483 1.184137,-1.68208 0,0 0.175325,-0.0209 1.291706,-0.0497 0,0 0.03068,0.99106 -0.113964,4.77906 z"
           id="path4225-6"
           sodipodi:nodetypes="ccccccccc" />
      </g>
    </g>
    <use
       x="0"
       y="0"
       xlink:href="#g9230"
       id="use9236"
       width="100%"
       height="100%"
       transform="matrix(2.0562234,0,0,2.0561875,21.949639,-180.30012)" />
  </g>
  <g
     inkscape:groupmode="layer"
     id="layer16"
     inkscape:label="Capa 2"
     style="display:none">
    <path
       style="display:inline;opacity:1;mix-blend-mode:multiply;fill:#f5f5f5;fill-opacity:1;stroke:none;stroke-width:0.264583px;stroke-linecap:butt;stroke-linejoin:miter;stroke-opacity:1"
       d="m 33.168181,166.2804 c -1.35733,1.13545 -1.673776,1.95556 -1.19004,2.58481 0.993485,-1.19506 1.735718,-2.10359 3.265357,-2.57648 1.758467,-0.54363 5.59868,-0.82563 7.348357,0.52909 0.93917,0.72717 1.310569,1.20996 1.906327,1.8957 0.07372,0.094 0.988981,1.7646 0.59342,-0.008 0,0 -0.212918,-1.06054 -0.85496,-1.99359 -0.340864,-0.49536 -0.82696,-1.07154 -1.592092,-1.36557 -0.206105,-0.0792 -0.925042,-0.3948 -1.141586,-0.45798 -3.220363,-0.9395 -6.376449,0.19077 -5.96127,0.0436 0,0 -0.897279,0.15834 -2.373513,1.34814 z"
       id="path4058"
       sodipodi:nodetypes="ccssccssscc"
       transform="matrix(2.0562234,0,0,2.0561875,-46.82249,-338.26606)" />
  </g>
</svg>
