<?xml version="1.0" encoding="UTF-8" standalone="no"?>
<svg
   xmlns:dc="http://purl.org/dc/elements/1.1/"
   xmlns:cc="http://creativecommons.org/ns#"
   xmlns:rdf="http://www.w3.org/1999/02/22-rdf-syntax-ns#"
   xmlns:svg="http://www.w3.org/2000/svg"
   xmlns="http://www.w3.org/2000/svg"
   xmlns:xlink="http://www.w3.org/1999/xlink"
   xmlns:sodipodi="http://sodipodi.sourceforge.net/DTD/sodipodi-0.dtd"
   xmlns:inkscape="http://www.inkscape.org/namespaces/inkscape"
   width="70.009537mm"
   height="184.10548mm"
   viewBox="0 0 70.009537 184.10548"
   version="1.1"
   id="svg11514"
   inkscape:version="1.0.1 (3bc2e813f5, 2020-09-07)"
   sodipodi:docname="mamogram.svg">
  <defs
     id="defs11508">
    <linearGradient
       inkscape:collect="always"
       xlink:href="#linearGradient5475"
       id="linearGradient5477"
       x1="137.3389"
       y1="215.04739"
       x2="137.80496"
       y2="227.5256"
       gradientUnits="userSpaceOnUse"
       gradientTransform="matrix(0.26458333,0,0,0.26458333,114.73564,69.88427)" />
    <linearGradient
       inkscape:collect="always"
       id="linearGradient5475">
      <stop
         style="stop-color:#c9cac5;stop-opacity:1"
         offset="0"
         id="stop5471" />
      <stop
         style="stop-color:#c8c8c2;stop-opacity:1"
         offset="1"
         id="stop5473" />
    </linearGradient>
    <linearGradient
       inkscape:collect="always"
       xlink:href="#linearGradient4753"
       id="linearGradient4757"
       x1="136.58607"
       y1="14.463488"
       x2="137.13013"
       y2="54.623363"
       gradientUnits="userSpaceOnUse"
       gradientTransform="matrix(0.26458333,0,0,0.26458333,114.73564,69.88427)" />
    <linearGradient
       inkscape:collect="always"
       id="linearGradient4753">
      <stop
         style="stop-color:#4f4f4f;stop-opacity:1"
         offset="0"
         id="stop4749" />
      <stop
         style="stop-color:#000000;stop-opacity:1"
         offset="1"
         id="stop4751" />
    </linearGradient>
    <filter
       inkscape:collect="always"
       style="color-interpolation-filters:sRGB"
       id="filter5216"
       x="-0.18746293"
       width="1.3749259"
       y="-0.4459646"
       height="1.8919291">
      <feGaussianBlur
         inkscape:collect="always"
         stdDeviation="2.0143001"
         id="feGaussianBlur5218" />
    </filter>
    <filter
       inkscape:collect="always"
       style="color-interpolation-filters:sRGB"
       id="filter5160"
       x="-1.0497414"
       width="3.0994828"
       y="-1.1959343"
       height="3.3918686">
      <feGaussianBlur
         inkscape:collect="always"
         stdDeviation="3.6112486"
         id="feGaussianBlur5162" />
    </filter>
  </defs>
  <sodipodi:namedview
     id="base"
     pagecolor="#ffffff"
     bordercolor="#666666"
     borderopacity="1.0"
     inkscape:pageopacity="0.0"
     inkscape:pageshadow="2"
     inkscape:zoom="0.7"
     inkscape:cx="438.56431"
     inkscape:cy="300.12832"
     inkscape:document-units="mm"
     inkscape:current-layer="layer1"
     inkscape:document-rotation="0"
     showgrid="false"
     fit-margin-top="0"
     fit-margin-left="0"
     fit-margin-right="0"
     fit-margin-bottom="0"
     inkscape:window-width="1510"
     inkscape:window-height="1005"
     inkscape:window-x="410"
     inkscape:window-y="46"
     inkscape:window-maximized="0" />
  <metadata
     id="metadata11511">
    <rdf:RDF>
      <cc:Work
         rdf:about="">
        <dc:format>image/svg+xml</dc:format>
        <dc:type
           rdf:resource="http://purl.org/dc/dcmitype/StillImage" />
        <dc:title></dc:title>
      </cc:Work>
    </rdf:RDF>
  </metadata>
  <g
     inkscape:label="Capa 1"
     inkscape:groupmode="layer"
     id="layer1"
     transform="translate(-43.939517,-75.248302)">
    <g
       id="g9055"
       clip-path="none"
       transform="translate(-71.634123,2.3314355)"
       style="display:inline">
      <g
         inkscape:label="Clip"
         id="g9053">
        <a
           id="a9026">
          <path
             style="display:inline;fill:#e7e7e4;fill-opacity:1;stroke:none;stroke-width:0.264583px;stroke-linecap:butt;stroke-linejoin:miter;stroke-opacity:1"
             d="m 185.58318,135.13122 -2.40482,86.82796 -8.51019,-5.34095 -51.37404,1.4989 1.21394,-83.8071 12.3989,-2.36433 30.40062,0.54027 4.48487,-2.74488 z"
             id="path3417"
             sodipodi:nodetypes="ccccccccc" />
        </a>
        <path
           style="display:inline;fill:#000000;fill-opacity:1;stroke:#000000;stroke-width:0.264583px;stroke-linecap:butt;stroke-linejoin:miter;stroke-opacity:1"
           d="m 148.04615,153.43584 0.2139,62.56651 11.39027,0.14621 0.26559,-63.46962 c 0,0 -6.79704,-1.39985 -11.84493,0.054 z"
           id="path4015"
           sodipodi:nodetypes="cccccc" />
        <path
           style="display:inline;fill:#000000;fill-opacity:1;stroke:#000000;stroke-width:0.264583px;stroke-linecap:butt;stroke-linejoin:miter;stroke-opacity:1"
           d="m 132.72664,160.51367 c -0.53573,0.22438 -0.28315,55.09514 -0.28315,55.09514 l 1.80791,-0.10435 -0.176,-56.60589 c 0,0 -1.15043,-1.47128 -1.6231,-0.72461 z"
           id="path4019"
           sodipodi:nodetypes="cccccc" />
        <path
           style="display:inline;fill:#000000;fill-opacity:1;stroke:#000000;stroke-width:0.264583px;stroke-linecap:butt;stroke-linejoin:miter;stroke-opacity:1"
           d="m 173.19737,161.06125 c 0,0 0.59422,-1.20377 1.18528,0 l 0.28552,55.55698 -1.4768,-0.0843 z"
           id="path4021" />
        <path
           style="display:inline;fill:#c8c8c2;fill-opacity:1;stroke:none;stroke-width:0.264583px;stroke-linecap:butt;stroke-linejoin:miter;stroke-opacity:1"
           d="m 136.34526,129.76447 0.56171,2.18123 30.40062,0.54027 c 0,0 3.91306,-1.73559 4.48487,-2.74488 l -0.98233,-3.23262"
           id="path3415"
           sodipodi:nodetypes="ccccc" />
        <path
           style="display:inline;fill:#000000;fill-opacity:0.270272;stroke:none;stroke-width:0.223616px;stroke-linecap:butt;stroke-linejoin:miter;stroke-opacity:1"
           d="m 173.98471,148.88351 c -34.20776,-5.63996 -39.43662,0.0279 -39.43662,0.0279 l -0.28293,11.56302 c 0,0 1.7435,3.77234 3.12989,0.0827 l -0.13301,-2.25171 c 0,0 16.56285,-4.88588 33.04322,0.43521 l 0.2107,3.53375 c -0.0224,-0.003 0.9079,3.32851 3.10718,0.91769 l 0.36157,-14.30851"
           id="path5408-3"
           sodipodi:nodetypes="ccccccccc" />
        <path
           style="display:inline;fill:#0a0a10;fill-opacity:1;stroke:#000000;stroke-width:0.264583px;stroke-linecap:butt;stroke-linejoin:miter;stroke-opacity:1"
           d="m 121.89355,226.13598 -6.31991,13.7832 0.15858,4.56108 68.82775,2.02887 -0.0656,-4.25778 -1.36822,-14.64068 z"
           id="path3419"
           sodipodi:nodetypes="ccccccc" />
        <path
           style="display:inline;fill:#e7e7e4;fill-opacity:1;stroke:none;stroke-width:0.264583px;stroke-linecap:butt;stroke-linejoin:miter;stroke-opacity:1"
           d="m 116.18269,251.65642 -0.45047,-7.17616 68.82775,2.02887 -0.15571,7.73079 c 0,0 -1.85812,2.92635 -5.96885,2.77689 l -58.87289,-2.04092 c 0,0 -3.07579,-0.47449 -3.37983,-3.31947"
           id="path3423"
           sodipodi:nodetypes="ccccccc" />
        <path
           style="display:inline;fill:#36363a;fill-opacity:1;stroke:none;stroke-width:0.264583px;stroke-linecap:butt;stroke-linejoin:miter;stroke-opacity:1"
           d="m 121.89355,226.13598 c 0,0 -0.84112,-7.32065 3.89715,-10.56807 l 52.26633,0.96159 c 0,0 5.25234,0.64323 5.10614,6.54517 l -0.0371,4.536 z"
           id="path4012"
           sodipodi:nodetypes="cccscc" />
        <path
           style="display:inline;fill:#e7e7e4;fill-opacity:1;stroke:none;stroke-width:0.264583px;stroke-linecap:butt;stroke-linejoin:miter;stroke-opacity:1"
           d="m 170.33335,127.91402 c 0,0 8.40162,-47.27955 3.90459,-50.04684 0,0 -20.80691,-12.02185 -46.19881,1.40332 0,0 -2.84695,46.26367 5.0228,48.50096 12.86759,0.88326 25.01686,0.82571 37.27142,0.14256 z"
           id="path3411"
           sodipodi:nodetypes="ccccc" />
        <path
           style="display:inline;fill:url(#linearGradient5477);fill-opacity:1;stroke:none;stroke-width:0.264583px;stroke-linecap:butt;stroke-linejoin:miter;stroke-opacity:1"
           d="m 170.33335,127.91402 c -0.17862,1.96771 -1.98485,2.05729 -1.98485,2.05729 l -32.00324,-0.20684 -3.28333,-1.99301 c 12.37718,0.53781 24.79595,0.84064 37.27142,0.14256 z"
           id="path3413"
           sodipodi:nodetypes="ccccc" />
        <path
           style="display:inline;fill:#c9cac5;fill-opacity:1;stroke:none;stroke-width:0.264583px;stroke-linecap:butt;stroke-linejoin:miter;stroke-opacity:1"
           d="m 176.48026,143.61333 c -38.80688,-6.96003 -44.73875,0.0344 -44.73875,0.0344 l -0.32097,14.26942 c 0,0 1.97791,4.65528 3.5507,0.10205 l -0.1509,-2.77873 c 0,0 18.78968,-6.02945 37.48578,0.53707 l 0.23902,4.36085 c -0.0255,-0.003 1.02997,4.10758 3.52493,1.13248 l 0.41019,-17.65751"
           id="path5408"
           sodipodi:nodetypes="ccccccccc" />
        <path
           style="display:inline;fill:url(#linearGradient4757);fill-opacity:1;stroke:none;stroke-width:0.264583px;stroke-linecap:butt;stroke-linejoin:miter;stroke-opacity:1"
           d="m 131.1709,77.78291 c -0.26993,12.40772 0.94304,23.77721 4.84973,28.92562 6.42379,8.46558 22.47874,4.72684 23.38787,4.642 7.70376,-0.71892 12.45586,-21.8657 11.81005,-34.81835 0,0 -18.61169,-8.84577 -40.04765,1.25073"
           id="path4743"
           sodipodi:nodetypes="csscc" />
        <path
           style="display:inline;fill:#e2e3e0;fill-opacity:1;stroke:none;stroke-width:0.264583px;stroke-linecap:butt;stroke-linejoin:miter;stroke-opacity:1"
           d="m 132.81192,144.20033 13.29239,0.1236 0.0207,-2.82165 0.13916,-2.2418 5.26823,-0.005 7.18817,0.0237 -0.0837,5.00395 14.75692,0.0319 -0.005,-2.20975 c -0.0576,-0.28586 2.00771,-2.77606 3.9721,0.12885 l 0.12124,10.34971 -4.20848,0.066 -0.13347,-3.92322 -1.59393,0.0299 c -1.95627,-0.026 -41.19271,-0.0608 -41.19271,-0.0608 l -0.15288,3.33681 -4.69909,-0.0954 0.32169,-10.37033 c 1.31838,-1.08437 2.75917,-1.71927 4.81679,-0.0893 l -0.0877,2.95765 2.25927,-0.23485"
           id="path5392"
           sodipodi:nodetypes="ccccccccccccccccccccc" />
        <path
           style="display:inline;fill:none;stroke:#000000;stroke-width:0.264583px;stroke-linecap:butt;stroke-linejoin:miter;stroke-opacity:1"
           d="m 146.11295,141.59224 12.56355,-0.10332"
           id="path5421" />
        <path
           style="display:inline;fill:none;stroke:#000000;stroke-width:0.264583px;stroke-linecap:butt;stroke-linejoin:miter;stroke-opacity:1"
           d="m 128.21328,140.50984 c -0.13024,1.42277 -0.57363,11.35056 -0.57363,11.35056"
           id="path5423" />
        <path
           style="display:inline;fill:none;stroke:#000000;stroke-width:0.264583px;stroke-linecap:butt;stroke-linejoin:miter;stroke-opacity:1"
           d="m 175.16269,140.98378 c 0.0463,0.30843 0.15574,11.52415 0.15574,11.52415"
           id="path5425"
           sodipodi:nodetypes="cc" />
        <path
           style="display:inline;fill:#000000;fill-opacity:1;stroke:#000000;stroke-width:0.264583px;stroke-linecap:butt;stroke-linejoin:miter;stroke-opacity:1"
           d="m 142.25672,129.82936 -0.25737,1.51222 -4.3193,0.1813 -0.007,-1.65015 z"
           id="path5427"
           sodipodi:nodetypes="ccccc" />
        <path
           style="display:inline;fill:#000000;fill-opacity:1;stroke:#000000;stroke-width:0.264583px;stroke-linecap:butt;stroke-linejoin:miter;stroke-opacity:1"
           d="m 159.52888,129.95269 c -0.22858,0.1743 -0.0788,1.65184 -0.0788,1.65184 l 5.06335,0.0603 0.0253,-1.68562 z"
           id="path5429"
           sodipodi:nodetypes="ccccc" />
        <path
           style="display:inline;fill:#000000;fill-opacity:1;stroke:#000000;stroke-width:0.264583px;stroke-linecap:butt;stroke-linejoin:miter;stroke-opacity:1"
           d="m 144.24567,130.50896 c 0.52956,-0.008 13.80133,0.30732 13.80133,0.30732 l -0.10257,0.69673 -13.98248,0.0495 0.13821,-1.20063"
           id="path5431"
           sodipodi:nodetypes="ccccc" />
        <path
           style="display:inline;fill:none;stroke:#979797;stroke-width:0.264583px;stroke-linecap:butt;stroke-linejoin:miter;stroke-opacity:1"
           d="m 146.10431,144.32393 12.53255,-0.0409"
           id="path5445" />
        <path
           style="display:inline;fill:#ffffff;fill-opacity:1;stroke:none;stroke-width:1px;stroke-linecap:butt;stroke-linejoin:miter;stroke-opacity:1;filter:url(#filter5216)"
           d="m 101.86757,12.246285 c 6.78656,-6.535672 -10.810871,-6.886503 -22.622297,1.366322 -7.723394,5.396454 13.58946,7.332572 22.622297,-1.366322 z"
           id="path4764"
           sodipodi:nodetypes="sss"
           transform="matrix(0.26458333,0,0,0.26458333,115.44034,72.916871)" />
        <path
           style="display:inline;fill:#ffffff;fill-opacity:1;fill-rule:evenodd;stroke:none;stroke-opacity:0.0635517;filter:url(#filter5160)"
           id="path5058"
           sodipodi:type="arc"
           sodipodi:cx="89.43203"
           sodipodi:cy="48.887733"
           sodipodi:rx="4.1281581"
           sodipodi:ry="3.6235254"
           sodipodi:start="0"
           sodipodi:end="6.2660287"
           sodipodi:arc-type="slice"
           d="m 93.560188,48.887733 a 4.1281581,3.6235254 0 0 1 -4.110452,3.623493 4.1281581,3.6235254 0 0 1 -4.145712,-3.592409 4.1281581,3.6235254 0 0 1 4.074888,-3.654309 4.1281581,3.6235254 0 0 1 4.180668,3.561061 l -4.12755,0.06216 z"
           transform="matrix(0.26458333,0,0,0.26458333,115.44034,72.916871)" />
      </g>
    </g>
    <use
       x="0"
       y="0"
       xlink:href="#g9053"
       id="use9059"
       width="100%"
       height="100%"
       transform="translate(-71.634123,2.3314355)" />
  </g>
</svg>
