<?xml version="1.0" encoding="UTF-8" standalone="no"?>
<!-- Created with Inkscape (http://www.inkscape.org/) -->

<svg
   xmlns:dc="http://purl.org/dc/elements/1.1/"
   xmlns:cc="http://creativecommons.org/ns#"
   xmlns:rdf="http://www.w3.org/1999/02/22-rdf-syntax-ns#"
   xmlns:svg="http://www.w3.org/2000/svg"
   xmlns="http://www.w3.org/2000/svg"
   xmlns:sodipodi="http://sodipodi.sourceforge.net/DTD/sodipodi-0.dtd"
   xmlns:inkscape="http://www.inkscape.org/namespaces/inkscape"
   width="71.357796mm"
   height="265.71338mm"
   viewBox="0 0 71.357796 265.71338"
   version="1.1"
   id="svg8"
   inkscape:version="0.92.3 (2405546, 2018-03-11)"
   sodipodi:docname="regla.svg">
  <defs
     id="defs2">
    <inkscape:path-effect
       effect="ruler"
       id="path-effect858"
       is_visible="true"
       unit="px"
       mark_distance="20"
       mark_length="120"
       minor_mark_length="40"
       major_mark_steps="10"
       shift="0"
       offset="0"
       mark_dir="left"
       border_marks="both" />
    <inkscape:path-effect
       effect="ruler"
       id="path-effect827"
       is_visible="true"
       unit="px"
       mark_distance="20"
       mark_length="14"
       minor_mark_length="7"
       major_mark_steps="10"
       shift="0"
       offset="0"
       mark_dir="left"
       border_marks="both" />
  </defs>
  <sodipodi:namedview
     id="base"
     pagecolor="#ffffff"
     bordercolor="#666666"
     borderopacity="1.0"
     inkscape:pageopacity="0.0"
     inkscape:pageshadow="2"
     inkscape:zoom="0.43852551"
     inkscape:cx="69.07107"
     inkscape:cy="513.44542"
     inkscape:document-units="mm"
     inkscape:current-layer="layer1"
     showgrid="false"
     fit-margin-top="0"
     fit-margin-left="0"
     fit-margin-right="0"
     fit-margin-bottom="0"
     inkscape:window-width="1366"
     inkscape:window-height="740"
     inkscape:window-x="0"
     inkscape:window-y="312"
     inkscape:window-maximized="1" />
  <metadata
     id="metadata5">
    <rdf:RDF>
      <cc:Work
         rdf:about="">
        <dc:format>image/svg+xml</dc:format>
        <dc:type
           rdf:resource="http://purl.org/dc/dcmitype/StillImage" />
        <dc:title></dc:title>
      </cc:Work>
    </rdf:RDF>
  </metadata>
  <g
     inkscape:label="Capa 1"
     inkscape:groupmode="layer"
     id="layer1"
     transform="translate(-97.523805,-4.4523813)">
    <rect
       style="fill:#ddffff;fill-opacity:1;stroke:#000000;stroke-width:2.24953914;stroke-miterlimit:4;stroke-dasharray:none;stroke-opacity:1"
       id="rect852"
       width="69.108253"
       height="263.46384"
       x="98.648575"
       y="5.5771508" />
    <path
       style="fill:none;stroke:#000000;stroke-width:1.79999995;stroke-linecap:butt;stroke-linejoin:miter;stroke-miterlimit:4;stroke-dasharray:none;stroke-opacity:1"
       d="M 99.18923,5.5930995 V 269.02504 m 0,-263.4319405 h 31.75 m -31.75,5.2916665 h 10.58333 m -10.58333,5.291667 h 10.58333 m -10.58333,5.291666 h 10.58333 m -10.58333,5.291667 h 10.58333 m -10.58333,5.291667 h 10.58333 m -10.58333,5.291666 h 10.58333 m -10.58333,5.291667 h 10.58333 m -10.58333,5.291667 h 10.58333 m -10.58333,5.291666 h 10.58333 m -10.58333,5.291667 h 31.75 m -31.75,5.291667 h 10.58333 m -10.58333,5.291666 h 10.58333 m -10.58333,5.291667 h 10.58333 m -10.58333,5.291667 h 10.58333 m -10.58333,5.291666 h 10.58333 m -10.58333,5.291667 h 10.58333 m -10.58333,5.291667 h 10.58333 M 99.18923,100.8431 h 10.58333 m -10.58333,5.29167 h 10.58333 m -10.58333,5.29166 h 31.75 m -31.75,5.29167 h 10.58333 m -10.58333,5.29167 h 10.58333 m -10.58333,5.29166 h 10.58333 m -10.58333,5.29167 h 10.58333 m -10.58333,5.29167 h 10.58333 m -10.58333,5.29166 h 10.58333 m -10.58333,5.29167 h 10.58333 m -10.58333,5.29167 h 10.58333 m -10.58333,5.29166 h 10.58333 m -10.58333,5.29167 h 31.75 m -31.75,5.29167 h 10.58333 m -10.58333,5.29166 h 10.58333 m -10.58333,5.29167 h 10.58333 m -10.58333,5.29167 h 10.58333 m -10.58333,5.29166 h 10.58333 m -10.58333,5.29167 h 10.58333 m -10.58333,5.29167 h 10.58333 m -10.58333,5.29166 h 10.58333 m -10.58333,5.29167 h 10.58333 m -10.58333,5.29167 h 31.75 m -31.75,5.29166 h 10.58333 m -10.58333,5.29167 h 10.58333 m -10.58333,5.29167 h 10.58333 m -10.58333,5.29166 h 10.58333 m -10.58333,5.29167 h 10.58333 m -10.58333,5.29167 h 10.58333 m -10.58333,5.29166 h 10.58333 m -10.58333,5.29167 h 10.58333 m -10.58333,5.29167 h 10.58333 m -10.58333,4.14027 h 31.75"
       id="path856"
       inkscape:connector-curvature="0"
       inkscape:path-effect="#path-effect858"
       inkscape:original-d="M 99.18923,5.5930995 V 269.02504" />
    <path
       style="fill:#808000;stroke:#bf0000;stroke-width:4.82140636;stroke-linecap:butt;stroke-linejoin:miter;stroke-miterlimit:4;stroke-dasharray:none;stroke-opacity:1"
       d="M 145.09315,111.12476 H 99.189229"
       id="path860"
       inkscape:connector-curvature="0" />
  </g>
</svg>
