<?xml version="1.0" encoding="UTF-8" standalone="no"?>
<svg
   xmlns:dc="http://purl.org/dc/elements/1.1/"
   xmlns:cc="http://creativecommons.org/ns#"
   xmlns:rdf="http://www.w3.org/1999/02/22-rdf-syntax-ns#"
   xmlns:svg="http://www.w3.org/2000/svg"
   xmlns="http://www.w3.org/2000/svg"
   xmlns:sodipodi="http://sodipodi.sourceforge.net/DTD/sodipodi-0.dtd"
   xmlns:inkscape="http://www.inkscape.org/namespaces/inkscape"
   width="165.78531"
   height="85.238831"
   viewBox="0 0 43.864031 22.552776"
   version="1.1"
   id="svg8"
   inkscape:version="0.92.3 (2405546, 2018-03-11)"
   sodipodi:docname="slab45placa.svg">
  <defs
     id="defs2" />
  <sodipodi:namedview
     id="base"
     pagecolor="#ffffff"
     bordercolor="#666666"
     borderopacity="1.0"
     inkscape:pageopacity="0.0"
     inkscape:pageshadow="2"
     inkscape:zoom="5.6"
     inkscape:cx="91.764962"
     inkscape:cy="34.867744"
     inkscape:document-units="mm"
     inkscape:current-layer="layer2"
     inkscape:document-rotation="0"
     showgrid="false"
     inkscape:window-width="1853"
     inkscape:window-height="1025"
     inkscape:window-x="1433"
     inkscape:window-y="27"
     inkscape:window-maximized="1"
     units="px"
     fit-margin-top="0"
     fit-margin-left="0"
     fit-margin-right="0"
     fit-margin-bottom="0" />
  <metadata
     id="metadata5">
    <rdf:RDF>
      <cc:Work
         rdf:about="">
        <dc:format>image/svg+xml</dc:format>
        <dc:type
           rdf:resource="http://purl.org/dc/dcmitype/StillImage" />
        <dc:title></dc:title>
      </cc:Work>
    </rdf:RDF>
  </metadata>
  <g
     inkscape:groupmode="layer"
     id="layer2"
     inkscape:label="Layer 2"
     style="display:inline"
     transform="translate(0.528963,-3.390238)">
    <g
       style="display:inline"
       id="g959"
       transform="matrix(1.0379102,0,0,1.0719959,-0.84065842,-0.5072469)">
      <g
         style="display:inline"
         inkscape:label="Layer 2"
         id="layer2-3">
        <path
           sodipodi:nodetypes="ccccc"
           id="path924-5"
           d="M 0.41924357,24.541343 8.0529652,8.9965334 H 34.809532 l 7.633721,15.5448096 z"
           style="fill:#87d1d2;fill-opacity:0.47638502;stroke:#fefefe;stroke-width:0.26499999;stroke-linecap:butt;stroke-linejoin:bevel;stroke-miterlimit:4;stroke-dasharray:none;stroke-opacity:1"
           inkscape:connector-curvature="0" />
      </g>
      <g
         style="display:inline"
         id="layer1-6"
         inkscape:label="Layer 1">
        <path
           inkscape:connector-curvature="0"
           sodipodi:nodetypes="ccccc"
           id="path926-2"
           d="M 0.41924279,23.888262 8.0529648,8.9965334 H 34.890984 l 7.552269,14.8917286 z"
           style="fill:#65d1d2;fill-opacity:0.29753203;stroke:#fefefe;stroke-width:0.26499999;stroke-linecap:butt;stroke-linejoin:bevel;stroke-miterlimit:4;stroke-dasharray:none;stroke-opacity:1" />
        <path
           transform="scale(0.26458333)"
           inkscape:connector-curvature="0"
           id="path879"
           d="M 3.743536,89.563621 C 3.7916296,89.440853 9.8792536,77.025675 17.27159,61.974335 L 30.7122,34.608264 h 50.290096 50.290094 l 6.68329,13.616071 c 3.67581,7.48884 9.76089,19.876127 13.52239,27.527306 3.7615,7.651178 6.83909,13.939125 6.83909,13.973214 0,0.03409 -34.80324,0.06198 -77.340533,0.06198 -61.800016,0 -77.3229634,-0.04485 -77.253091,-0.223214 z"
           style="fill:#b3b3b3;fill-opacity:1;stroke:#000000;stroke-width:0.17857143;stroke-miterlimit:4;stroke-dasharray:none;stroke-opacity:1" />
        <path
           transform="scale(0.26458333)"
           inkscape:connector-curvature="0"
           id="path881"
           d="m 2.7097641,91.640027 c 0.1486395,-0.355744 0.2702536,-0.677172 0.2702536,-0.714285 0,-0.03711 35.0742593,-0.06748 77.9428003,-0.06748 h 77.942802 l 0.3644,0.714286 0.3644,0.714285 H 81.016964 2.4395106 Z"
           style="fill:#b3b3b3;fill-opacity:1;stroke:#000000;stroke-width:0.17857143;stroke-miterlimit:4;stroke-dasharray:none;stroke-opacity:1" />
        <path
           transform="scale(0.26458333)"
           inkscape:connector-curvature="0"
           id="path883"
           d="M 80.450239,89.608264 C 38.545468,89.559157 4.2134268,89.472651 4.1568146,89.41603 4.0637881,89.322989 6.82599,83.652632 25.244636,46.126121 l 5.521689,-11.25 h 50.234403 50.234402 l 7.8461,15.982143 c 4.31536,8.790178 10.34227,21.068807 13.39315,27.285841 3.05088,6.217032 5.51764,11.328427 5.4817,11.358652 -0.20956,0.17623 -8.04925,0.186901 -77.505841,0.105507 z"
           style="fill:#b3b3b3;fill-opacity:1;stroke:#000000;stroke-width:0.17857143;stroke-miterlimit:4;stroke-dasharray:none;stroke-opacity:1" />
        <path
           transform="scale(0.26458333)"
           inkscape:connector-curvature="0"
           id="path885"
           d="m 4.0049615,86.706478 c 0.8740443,-1.694196 4.8760364,-9.495412 8.8933155,-17.336037 4.017279,-7.840624 7.326962,-14.187229 7.35485,-14.103566 0.02789,0.08366 -3.68644,7.768359 -8.25406,17.077103 -4.5676198,9.308745 -8.3047636,17.041511 -8.3047636,17.183923 0,0.177977 -0.1998673,0.258934 -0.6392567,0.258934 H 2.4157899 Z"
           style="fill:#b3b3b3;fill-opacity:1;stroke:#000000;stroke-width:0.17857143;stroke-miterlimit:4;stroke-dasharray:none;stroke-opacity:1" />
        <path
           transform="scale(0.26458333)"
           inkscape:connector-curvature="0"
           id="path887"
           d=""
           style="fill:#b3b3b3;fill-opacity:1;stroke:#000000;stroke-width:0.17857143;stroke-miterlimit:4;stroke-dasharray:none;stroke-opacity:1" />
        <path
           transform="scale(0.26458333)"
           inkscape:connector-curvature="0"
           id="path889"
           d="m 157.84434,88.313621 c -1.78069,-3.664323 -9.87291,-20.160723 -15.91784,-32.449323 -3.64599,-7.41186 -6.60743,-13.541057 -6.58097,-13.620437 0.0265,-0.07938 3.54299,6.74649 7.81451,15.168602 18.51716,36.510076 16.48479,32.374372 15.90945,32.374372 -0.46093,0 -0.57714,-0.139744 -1.22515,-1.473214 z"
           style="fill:#b3b3b3;fill-opacity:1;stroke:#000000;stroke-width:0.17857143;stroke-miterlimit:4;stroke-dasharray:none;stroke-opacity:1" />
        <path
           transform="scale(0.26458333)"
           inkscape:connector-curvature="0"
           id="path891"
           d="m 155.93396,84.027907 c -1.50291,-3.069197 -4.39097,-8.951028 -6.41789,-13.070736 -2.02693,-4.119708 -3.66379,-7.551545 -3.63747,-7.626304 0.0592,-0.168158 13.17285,25.786291 13.17285,26.071609 0,0.76492 -0.71329,-0.464787 -3.11749,-5.374569 z"
           style="fill:#b3b3b3;fill-opacity:1;stroke:#000000;stroke-width:0.17857143;stroke-miterlimit:4;stroke-dasharray:none;stroke-opacity:1" />
        <path
           transform="scale(0.26458333)"
           inkscape:connector-curvature="0"
           id="path893"
           d=""
           style="fill:#b3b3b3;fill-opacity:1;stroke:#000000;stroke-width:0.17857143;stroke-miterlimit:4;stroke-dasharray:none;stroke-opacity:1" />
      </g>
    </g>
    <rect
       style="display:inline;fill:#87d1d2;fill-opacity:0.47638502;stroke:#ffffff;stroke-width:0.22620501;stroke-linecap:butt;stroke-linejoin:miter;stroke-miterlimit:4;stroke-dasharray:none;stroke-opacity:1"
       id="rect902"
       width="26.761297"
       height="5.4737954"
       x="8.0482349"
       y="3.522738" />
    <path
       style="display:inline;fill:#87d1d2;fill-opacity:0.47638502;stroke:#fefefe;stroke-width:0.26458299px;stroke-linecap:butt;stroke-linejoin:bevel;stroke-opacity:1"
       d="M 0.41924357,17.588352 8.0482349,3.522738 8.0529652,8.9965334 0.41924357,24.541343 Z"
       id="path905"
       sodipodi:nodetypes="ccccc"
       inkscape:connector-curvature="0" />
    <path
       style="display:inline;fill:#87d1d2;fill-opacity:0.47638502;stroke:#fefefe;stroke-width:0.26458299px;stroke-linecap:butt;stroke-linejoin:bevel;stroke-opacity:1"
       d="M 42.505566,17.588352 34.809532,3.522738 v 5.4737954 l 7.633721,15.5448096 z"
       id="path905-7"
       sodipodi:nodetypes="ccccc"
       inkscape:connector-curvature="0" />
    <path
       style="display:inline;fill:#87d1d2;fill-opacity:0.47638502;stroke:#fefefe;stroke-width:0.26499999;stroke-linecap:butt;stroke-linejoin:bevel;stroke-miterlimit:4;stroke-dasharray:none;stroke-opacity:1"
       d="M 0.41924357,24.541343 8.0529652,8.9965334 H 34.809532 l 7.633721,15.5448096 z"
       id="path924"
       sodipodi:nodetypes="ccccc"
       inkscape:connector-curvature="0" />
    <path
       style="display:inline;fill:#65d1d2;fill-opacity:0.29753203;stroke:#fefefe;stroke-width:0.26499999;stroke-linecap:butt;stroke-linejoin:bevel;stroke-miterlimit:4;stroke-dasharray:none;stroke-opacity:1"
       d="M 0.48155621,17.588352 8.0482349,3.522738 H 34.809532 l 7.696034,14.065614 z"
       id="path926"
       sodipodi:nodetypes="ccccc"
       inkscape:connector-curvature="0" />
    <rect
       style="display:inline;fill:#65d1d2;fill-opacity:0.29753203;stroke:#ffffff;stroke-width:0.24700899;stroke-linecap:butt;stroke-linejoin:miter;stroke-miterlimit:4;stroke-dasharray:none;stroke-opacity:1"
       id="rect898"
       width="42.086323"
       height="6.9529915"
       x="0.41924357"
       y="17.588352" />
  </g>
  <g
     inkscape:label="Layer 1"
     inkscape:groupmode="layer"
     id="layer1"
     style="display:inline"
     transform="translate(0.528963,-3.390238)" />
</svg>
